<?xml version="1.0" encoding="UTF-8" standalone="no"?>
<svg width="40px" height="40px" xmlns="http://www.w3.org/2000/svg" viewBox="0 0 220 220" xmlns="http://www.w3.org/2000/svg">
	<g id="logo" fill="#000000" stroke="#000000" stroke-width="6">
		<path d="M73.231 60.003a3.186 3.186 0 1 0 0 6.375 3.186 3.186 0 0 0 0-6.375z"/>
		<path d="M91.046 56.982a3.187 3.187 0 1 0-.001-6.373 3.187 3.187 0 0 0 .001 6.373z"/>
		<path d="M99.641 64.019c.771-2.808-2.863-3.909-3.084-1.375-.219 2.531-.549 4.018-5.063 7.651-4.515 3.633-10.735 1.486-10.735 1.486s-1.762-.853-2.259.826c-.561 1.904 1.653 2.422 1.653 2.422s7.156 2.201 12.771-1.707c5.615-3.907 5.946-6.495 6.717-9.303z"/>
		<path d="M107.656 109.631a5.775 5.775 0 0 0 5.774-5.776 5.775 5.775 0 1 0-11.551 0 5.777 5.777 0 0 0 5.777 5.776z"/>
		<path d="M109.455 119.635a5.777 5.777 0 1 0 11.55 0 5.777 5.777 0 0 0-11.55 0z"/>
		<path d="M173.08 134.548c-7.527-14.003-21.443-26.143-26.476-30.264 17.464-6.539 21.154-15.682 21.777-20.672a15.395 15.395 0 0 0-.548-6.386c-.442-2.337-1.5-4.238-3.283-5.744-.642-.681-1.31-1.279-1.994-1.722-7.621-4.937-13.332-3.66-27.687 1.245l-.068.024c-3.182 1.286-12.18 4.066-15.524 1.499-1.08-.827-1.484-2.223-1.235-4.267 1.52-12.428-2.819-24.004-3-24.478-3.835-10.406-14.131-19.536-25.616-22.713-3.852-1.064-7.934-1.249-11.828-.926-.103.007-.208.019-.309.028-.709.063-1.408.142-2.101.237-.285.04-.568.072-.855.119-4.166.654-7.94 1.823-10.76 3.037-.503.195-.994.369-1.505.582 0 0-20.472 9.505-20.764 32.462a48.802 48.802 0 0 0 .372 6.584c1.959 20.827 19.609 29.353 19.749 29.414 4.124 2.146 6.398 4.593 6.761 7.274.41 3.021-1.522 6.542-5.741 10.465-4.853 4.519-16.091 16.159-15.636 26.666.174 3.99 2.011 7.377 5.458 10.066 3.272 2.552 6.964 3.565 10.973 2.999 8.609-1.205 16.417-9.354 19.771-13.339.534 2.696 1.247 7.327 1.308 13.029.133 12.518.948 30.176 6.476 38.968 4.004 6.377 9.48 10.438 15.023 11.148.607.08 1.21.117 1.808.117 3.895 0 7.62-1.644 11.086-4.907 8.946-8.416 8.171-39.449 7.793-47.784 2.715 1.216 8.112 4.299 12.839 11.017 4.603 6.538 13.275 11.944 21.097 13.143 4.423.676 8.136-.027 10.763-2.046 4.39-3.364 13.364-13.492 1.876-34.875zm-3.976 33.101c-2.034 1.308-4.847 1.766-8.269 1.242-5.055-.773-10.475-3.486-14.724-7.113a16.434 16.434 0 0 1-.251-2.953c0-6.653 6.8 1.902 6.8 1.902s4.898 4.899 7.46 1.463c2.556-3.437-3.074-12.576-1.466-14.404 1.61-1.829 5.632 2.635 5.632 2.635s4.241 4.676 7.018 2.042c2.779-2.631-.072-6.946-.877-10.82-.396-1.915.76-2.42 2.033-2.457 3.063 6.726 4.157 12.805 3.294 17.872-.947 4.517-3.58 8.228-6.65 10.591zm-7.963-95.699c2.706 1.748 5.312 6.042 4.654 11.34-.447 3.604-2.826 9.682-12.538 15.089.002-.461.213-.945.792-1.408 2.195-1.756 5.705-3.145 5.558-6.582-.146-3.436-4.02-3.217-6.799-2.413-2.781.804-5.557-.438-4.39-2.706 1.173-2.266 4.754-1.023 6.363-3.436 1.608-2.414 0-5.045-2.488-5.192-2.482-.146-7.454 1.098-8.187-1.024-.429-1.24-.252-3.252 1.438-5.222 7.264-1.898 10.94-1.462 15.597 1.554zM55.708 124.168c-1.829 2.559-4.241 6.216-2.047 9.655 2.193 3.435 6.141.436 8.555-1.758 2.412-2.193 7.018-1.534 4.386 1.758-2.631 3.288-3.437 6.868-1.389 9.138 2.046 2.266 5.629-1.318 7.091-2.193.886-.532 1.711.143 2.229.759-3.362 2.81-7.451 5.381-11.656 5.968-3.277.455-6.312-.37-9.006-2.473-2.859-2.232-4.317-4.886-4.458-8.125-.215-4.944 2.716-10.388 6.115-14.98.597.582.823 1.351.18 2.251zm31.218 25.57c-.103-9.502-1.916-16.014-1.993-16.287l-.73-2.58-1.577 2.165c-.046.067-2.312 3.129-5.781 6.431-7.625-5.245-8.767 3.842-10.024 1.301-1.315-2.662 5.338-7.021 1.169-11.481-4.167-4.458-10.308 4.899-12.21 3.144-1.902-1.753 2.194-5.774 2.852-9.064.289-1.439-.488-2.654-1.453-3.578a76.42 76.42 0 0 1 7.042-7.53c4.874-4.536 7.077-8.817 6.546-12.727-.484-3.569-3.222-6.678-8.19-9.261-.182-.085-18.2-8.742-18.504-30.284-.292-20.59 11.975-28.768 16.593-31.848l.778-.523c3.528-2.433 16.384-7.05 27.286-4.031C99.444 26.548 109.035 35.03 112.6 44.7c.043.114 4.29 11.478 2.855 23.248-.366 2.998.387 5.237 2.233 6.654 5.083 3.889 16.585-.547 18.057-1.139a225.658 225.658 0 0 1 5.936-1.948c-.604 1.3-.997 2.743-.647 4.106.951 3.73 4.533 4.168 5.852 3.876 1.316-.292 5.922-.803 5.996.074.071.877-.806 1.681-3.437 2.12-2.634.439-4.825 3.436-3.73 5.484 1.097 2.047 2.703 4.825 9.433 2.634 0 0 4.896-.368 0 3.069-3.459 2.426-4.338 4.455-4.029 6.62a62.435 62.435 0 0 1-7.577 3.113l-2.316.785 1.942 1.485c.189.144 18.779 14.459 27.616 30.902.17.32.316.63.481.946-.896.113-1.729.38-2.226.968-1.61 1.903-1.316 2.854.584 9.508 1.901 6.652-3.143 2.192-5.41-.075-2.267-2.265-4.68-2.56-6.803-1.533-2.117 1.023-3.288 3.801-.289 9.941 2.999 6.145-.668 6.037-2.705 3.232-2.036-2.811-7.099-6.886-9.688-4.354-1.737 1.704-1.596 3.67-1.317 4.789a24.774 24.774 0 0 1-1.934-2.38c-7.175-10.188-15.677-12.607-16.035-12.706l-1.765-.48.119 1.82c.014.222.773 12.651-.237 24.996-2.873-.566-6.617 2.792-6.725 6.728-.146 5.336-2.854 8.773-4.242 1.313-1.388-7.455-5.994-6.798-5.994-6.798s-1.902-.364-3.729 2.193c-1.829 2.558-.293 11.186-3.803 11.773-3.509.583-3.582-4.9-6.215-9.435-1.145-1.971-2.747-2.497-4.202-2.482-1.56-9.257-1.676-19.536-1.723-24.009zm36.392 23.283c-.888 8.593-2.728 16.726-6.391 20.171-3.406 3.207-7.048 4.582-10.778 4.107-4.769-.613-9.559-4.236-13.149-9.949-1.777-2.83-3.026-6.82-3.91-11.188 2.92-.166 3.979 13.535 10.56 12.201 6.724-1.356 4.095-13.379 6.434-14.184 2.339-.803 3.364 2.415 4.897 7.605 1.538 5.19 6.583 5.263 7.313 0 .731-5.264 2.63-8.847 4.24-9.066.275-.037.533.102.784.303z"/>
	</g>
</svg>